<svg version="1.1" id="Layer_1" xmlns="http://www.w3.org/2000/svg" xmlns:xlink="http://www.w3.org/1999/xlink" x="0px" y="0px"
	 width="100%" viewBox="0 0 960 1315" enable-background="new 0 0 960 1315" xml:space="preserve">
<path fill="#000000" opacity="1.000000" stroke="none" 
	d="
M462.000000,1316.000000 
	C308.000000,1316.000000 154.500000,1316.000000 1.000000,1316.000000 
	C1.000000,877.666687 1.000000,439.333344 1.000000,1.000000 
	C321.000000,1.000000 641.000000,1.000000 961.000000,1.000000 
	C961.000000,439.333344 961.000000,877.666687 961.000000,1316.000000 
	C794.833313,1316.000000 628.666687,1316.000000 462.000000,1316.000000 
M89.999680,710.500000 
	C89.999680,763.589355 89.999680,816.678650 89.999680,869.692383 
	C350.999023,869.692383 611.382446,869.692383 871.692383,869.692383 
	C871.692383,608.667603 871.692383,347.950867 871.692383,87.307602 
	C611.000977,87.307602 350.617493,87.307602 89.999680,87.307602 
	C89.999680,294.910278 89.999680,502.205139 89.999680,710.500000 
M721.062744,1001.381775 
	C718.541992,997.605408 715.955627,993.870667 713.525513,990.036804 
	C712.101868,987.790649 710.405640,986.893188 707.598450,986.919800 
	C690.603882,987.080811 673.606995,987.000000 656.610901,987.000000 
	C654.508423,987.000000 652.405884,987.000000 650.319946,987.000000 
	C650.319946,1068.307251 650.319946,1149.020142 650.319946,1229.642212 
	C670.698914,1229.642212 690.755920,1229.642212 711.196106,1229.642212 
	C711.196106,1183.765015 711.196106,1138.244629 711.196106,1092.389771 
	C712.602356,1093.961548 713.809509,1095.053711 714.711365,1096.357300 
	C728.130493,1115.751587 741.538574,1135.153687 754.890137,1154.594604 
	C771.457947,1178.718262 788.036194,1202.835571 804.403137,1227.095215 
	C805.966370,1229.412231 807.387634,1230.051392 809.907898,1230.041626 
	C829.569702,1229.966064 849.231995,1230.002808 868.894104,1229.986816 
	C869.837158,1229.986084 870.780029,1229.814697 871.677917,1229.727173 
	C871.677917,1148.688599 871.677917,1067.975708 871.677917,987.359985 
	C851.630066,987.359985 831.906311,987.359985 811.799561,987.359985 
	C811.799561,1035.567261 811.799561,1083.415527 811.799561,1132.118774 
	C781.346069,1088.231445 751.420593,1045.105103 721.062744,1001.381775 
M180.500000,987.000000 
	C150.413147,987.000000 120.326302,987.000000 90.361053,987.000000 
	C90.361053,1068.381226 90.361053,1149.098389 90.361053,1229.776367 
	C110.662300,1229.776367 130.601669,1229.776367 151.031891,1229.776367 
	C151.031891,1204.831299 151.031891,1180.104004 151.031891,1155.000000 
	C153.149643,1155.000000 154.779449,1155.000000 156.409256,1155.000000 
	C175.406281,1155.000000 194.403305,1154.984619 213.400314,1155.004761 
	C230.082092,1155.022339 244.845520,1149.124023 257.451111,1138.805298 
	C277.301208,1122.556519 285.591522,1100.324829 286.833618,1075.349854 
	C287.229706,1067.386353 286.195251,1059.237671 284.886047,1051.327637 
	C282.274384,1035.548340 275.503601,1021.496948 264.362671,1009.988831 
	C249.449677,994.584229 230.638016,987.752808 209.493881,987.052124 
	C200.172256,986.743164 190.831863,987.000000 180.500000,987.000000 
M418.499573,987.000000 
	C404.743469,987.000000 390.987396,987.000000 377.352600,987.000000 
	C377.352600,1068.377197 377.352600,1149.087891 377.352600,1229.621460 
	C436.087738,1229.621460 494.469666,1229.621460 552.760498,1229.621460 
	C552.760498,1211.969971 552.760498,1194.697876 552.760498,1176.943115 
	C514.469971,1176.943115 476.415375,1176.943115 437.886719,1176.943115 
	C437.886719,1113.410400 437.886719,1050.361694 437.886719,987.000000 
	C431.441467,987.000000 425.470398,987.000000 418.499573,987.000000 
z"/>
<path fill="#FFF200" opacity="1.000000" stroke="none" 
	d="
M89.999680,710.000000 
	C89.999680,502.205139 89.999680,294.910278 89.999680,87.307602 
	C350.617493,87.307602 611.000977,87.307602 871.692383,87.307602 
	C871.692383,347.950867 871.692383,608.667603 871.692383,869.692383 
	C611.382446,869.692383 350.999023,869.692383 89.999680,869.692383 
	C89.999680,816.678650 89.999680,763.589355 89.999680,710.000000 
M556.761963,544.714050 
	C577.236267,548.694519 596.250122,545.861572 614.175781,534.371521 
	C621.135315,529.910522 629.469543,526.428650 637.592407,525.162354 
	C663.998474,521.045898 688.002563,528.337646 709.856140,543.305847 
	C711.022949,544.104980 712.194458,544.897217 714.005127,546.129089 
	C714.005127,530.058960 713.800354,514.785645 714.126099,499.523651 
	C714.227844,494.756409 712.629883,491.940338 708.722961,489.431702 
	C692.271545,478.868195 674.045044,474.410034 654.828979,473.192444 
	C634.912842,471.930542 616.012817,474.547913 599.326050,486.861420 
	C592.595642,491.827942 584.494507,493.439819 576.314758,492.669556 
	C586.679626,466.766113 597.044495,440.862640 608.130615,414.720520 
	C616.527649,410.785004 624.555115,405.149658 633.390137,403.229065 
	C661.142944,397.196106 686.376648,404.900574 709.594421,420.361816 
	C710.889099,421.223999 712.180725,422.090912 714.005737,423.311371 
	C714.005737,406.831146 713.850891,391.194336 714.115479,375.564636 
	C714.180969,371.694580 712.790161,369.472961 709.792114,367.431915 
	C696.411133,358.322144 681.470581,353.472076 665.603882,351.460602 
	C642.154846,348.487885 619.408691,349.305542 599.197449,364.138885 
	C591.405457,369.857574 582.027710,371.058960 572.528320,370.865387 
	C559.335083,370.596527 546.863892,366.989166 534.842712,361.961517 
	C511.482788,352.191650 487.569366,347.155945 462.405975,351.274933 
	C485.078064,298.577637 507.750153,245.880371 530.628418,192.703812 
	C528.631592,192.500305 527.515808,192.287933 526.399902,192.287277 
	C495.907288,192.269028 465.414246,192.349258 434.922607,192.174194 
	C431.139008,192.152466 430.191071,193.957077 429.268524,196.926620 
	C421.856750,220.783951 414.366455,244.617050 406.842957,268.439484 
	C396.762665,300.357758 386.631134,332.259827 375.820404,363.836182 
	C363.207275,357.184174 350.027771,352.391418 335.714478,350.907745 
	C305.463165,347.772034 277.735626,356.124878 251.119324,369.393372 
	C249.595749,370.152893 248.250626,372.916016 248.221817,374.768402 
	C247.988892,389.747406 248.085098,404.731598 248.103943,419.714203 
	C248.105255,420.764221 248.290695,421.813965 248.358429,422.526337 
	C259.099518,417.742859 269.320679,412.495087 280.024414,408.559998 
	C307.538361,398.444763 334.863159,396.323669 361.044373,413.649811 
	C354.617371,433.960907 348.190369,454.271973 340.922729,474.396454 
	C308.778870,469.583069 279.253143,478.088501 250.875000,492.228882 
	C249.659271,492.834686 248.225357,494.565460 248.212418,495.786163 
	C248.036575,512.367310 248.094208,528.950928 248.094208,546.227661 
	C252.316864,543.960815 255.877029,541.918823 259.547943,540.100403 
	C280.525055,529.708984 302.259674,522.374268 326.101898,524.666931 
	C320.291107,543.379395 314.480347,562.091858 308.270233,582.090332 
	C315.703644,578.850037 321.626251,576.265564 327.551025,573.686035 
	C348.880432,564.399597 370.210663,555.114807 392.278748,545.999573 
	C393.928925,546.135010 395.576691,546.330811 397.229614,546.396423 
	C411.090515,546.946167 423.758209,542.742798 435.829346,536.439758 
	C459.450317,524.105896 484.261566,520.997742 510.365692,527.306335 
	C505.782867,550.344971 501.200043,573.383545 495.739380,596.272949 
	C486.934479,596.393311 478.079346,595.960022 469.335510,596.753357 
	C452.889679,598.245605 437.645294,604.359314 422.645264,610.775513 
	C405.861572,617.954773 389.923828,617.812378 373.886597,608.429260 
	C363.500610,602.352661 352.062042,598.598206 340.034058,596.914062 
	C308.215057,592.458557 278.966400,600.788818 250.947311,614.951843 
	C249.523605,615.671509 248.240631,618.205383 248.215240,619.914185 
	C248.000015,634.404846 248.092239,648.899963 248.092209,663.393799 
	C248.092194,665.109497 248.092194,666.825134 248.092194,668.481079 
	C257.733276,663.982971 266.580872,659.339844 275.812225,655.659241 
	C293.151886,648.745667 311.060608,644.648743 329.961151,646.857117 
	C341.489594,648.204163 351.650085,653.098755 361.492218,658.782410 
	C374.994690,666.579773 389.349945,670.377869 405.013519,669.028931 
	C416.722260,668.020569 427.265045,663.600586 437.557159,658.399536 
	C452.988129,650.601379 469.200806,646.221252 486.553558,647.680054 
	C477.822205,691.628479 469.090851,735.576843 460.359528,779.525269 
	C460.753754,779.656067 461.148010,779.786865 461.542267,779.917725 
	C462.252197,778.320801 463.016937,776.745667 463.663757,775.123596 
	C471.798950,754.723022 479.876587,734.299377 488.050659,713.914429 
	C496.592102,692.613281 505.222107,671.347595 514.501770,650.337463 
	C521.971924,653.576660 529.564636,656.562012 536.890137,660.100647 
	C563.282654,672.850037 588.911194,673.120056 614.284424,657.001160 
	C620.746643,652.895874 628.291931,649.461853 635.763977,648.165405 
	C662.700012,643.491882 687.171082,650.711365 709.532532,665.910400 
	C710.828857,666.791565 712.140259,667.650391 714.004944,668.892944 
	C714.004944,652.461853 713.836365,636.831177 714.119446,621.208740 
	C714.193298,617.132324 712.701477,614.837585 709.531433,612.707275 
	C697.560608,604.662781 684.353699,599.824890 670.215637,597.657166 
	C644.984802,593.788635 620.585449,594.081665 598.353699,609.813293 
	C592.886292,613.682190 585.092896,615.149109 578.171143,615.901367 
	C561.633789,617.698669 546.332397,612.085022 531.407532,605.267395 
	C539.573792,585.006592 547.740112,564.745789 556.761963,544.714050 
z"/>
<path fill="#00AEEF" opacity="1.000000" stroke="none" 
	d="
M721.278931,1001.680298 
	C751.420593,1045.105103 781.346069,1088.231445 811.799561,1132.118774 
	C811.799561,1083.415527 811.799561,1035.567261 811.799561,987.359985 
	C831.906311,987.359985 851.630066,987.359985 871.677917,987.359985 
	C871.677917,1067.975708 871.677917,1148.688599 871.677917,1229.727173 
	C870.780029,1229.814697 869.837158,1229.986084 868.894104,1229.986816 
	C849.231995,1230.002808 829.569702,1229.966064 809.907898,1230.041626 
	C807.387634,1230.051392 805.966370,1229.412231 804.403137,1227.095215 
	C788.036194,1202.835571 771.457947,1178.718262 754.890137,1154.594604 
	C741.538574,1135.153687 728.130493,1115.751587 714.711365,1096.357300 
	C713.809509,1095.053711 712.602356,1093.961548 711.196106,1092.389771 
	C711.196106,1138.244629 711.196106,1183.765015 711.196106,1229.642212 
	C690.755920,1229.642212 670.698914,1229.642212 650.319946,1229.642212 
	C650.319946,1149.020142 650.319946,1068.307251 650.319946,987.000000 
	C652.405884,987.000000 654.508423,987.000000 656.610901,987.000000 
	C673.606995,987.000000 690.603882,987.080811 707.598450,986.919800 
	C710.405640,986.893188 712.101868,987.790649 713.525513,990.036804 
	C715.955627,993.870667 718.541992,997.605408 721.278931,1001.680298 
z"/>
<path fill="#00AEEF" opacity="1.000000" stroke="none" 
	d="
M181.000000,987.000000 
	C190.831863,987.000000 200.172256,986.743164 209.493881,987.052124 
	C230.638016,987.752808 249.449677,994.584229 264.362671,1009.988831 
	C275.503601,1021.496948 282.274384,1035.548340 284.886047,1051.327637 
	C286.195251,1059.237671 287.229706,1067.386353 286.833618,1075.349854 
	C285.591522,1100.324829 277.301208,1122.556519 257.451111,1138.805298 
	C244.845520,1149.124023 230.082092,1155.022339 213.400314,1155.004761 
	C194.403305,1154.984619 175.406281,1155.000000 156.409256,1155.000000 
	C154.779449,1155.000000 153.149643,1155.000000 151.031891,1155.000000 
	C151.031891,1180.104004 151.031891,1204.831299 151.031891,1229.776367 
	C130.601669,1229.776367 110.662300,1229.776367 90.361053,1229.776367 
	C90.361053,1149.098389 90.361053,1068.381226 90.361053,987.000000 
	C120.326302,987.000000 150.413147,987.000000 181.000000,987.000000 
M213.538666,1044.922485 
	C208.871643,1043.281616 204.264969,1040.469727 199.526001,1040.225708 
	C186.728027,1039.566406 173.873764,1040.000000 161.041824,1040.000000 
	C157.773468,1040.000000 154.505112,1040.000000 151.361877,1040.000000 
	C151.361877,1061.370361 151.361877,1082.095581 151.361877,1102.999146 
	C167.544357,1102.999146 183.381683,1103.399048 199.177124,1102.761353 
	C204.068710,1102.563721 209.527405,1100.506470 213.556671,1097.650391 
	C229.688309,1086.215698 228.382294,1054.557739 213.538666,1044.922485 
z"/>
<path fill="#00AEEF" opacity="1.000000" stroke="none" 
	d="
M418.999451,987.000000 
	C425.470398,987.000000 431.441467,987.000000 437.886719,987.000000 
	C437.886719,1050.361694 437.886719,1113.410400 437.886719,1176.943115 
	C476.415375,1176.943115 514.469971,1176.943115 552.760498,1176.943115 
	C552.760498,1194.697876 552.760498,1211.969971 552.760498,1229.621460 
	C494.469666,1229.621460 436.087738,1229.621460 377.352600,1229.621460 
	C377.352600,1149.087891 377.352600,1068.377197 377.352600,987.000000 
	C390.987396,987.000000 404.743469,987.000000 418.999451,987.000000 
z"/>
<path fill="#ED1D24" opacity="1.000000" stroke="none" 
	d="
M341.763336,474.583069 
	C348.190369,454.271973 354.617371,433.960907 361.270325,412.963074 
	C366.504700,396.240509 371.513153,380.204681 376.521576,364.168854 
	C386.631134,332.259827 396.762665,300.357758 406.842957,268.439484 
	C414.366455,244.617050 421.856750,220.783951 429.268524,196.926620 
	C430.191071,193.957077 431.139008,192.152466 434.922607,192.174194 
	C465.414246,192.349258 495.907288,192.269028 526.399902,192.287277 
	C527.515808,192.287933 528.631592,192.500305 530.628418,192.703812 
	C507.750153,245.880371 485.078064,298.577637 462.187317,351.936951 
	C453.275330,372.849091 444.582001,393.099152 435.689941,413.609924 
	C428.630371,429.633698 421.769531,445.396820 414.333008,462.482483 
	C427.088226,457.330170 438.439331,452.768494 449.772461,448.162506 
	C478.110046,436.645660 506.439514,425.108704 535.164856,413.476776 
	C546.193237,409.101898 556.821411,404.811066 567.466431,400.562469 
	C584.887939,393.609253 602.320496,386.683533 619.978882,379.948883 
	C620.373718,380.273682 620.537964,380.395813 620.660034,380.887512 
	C616.215088,392.491119 611.812195,403.725159 607.409363,414.959198 
	C597.044495,440.862640 586.679626,466.766113 576.100586,493.340027 
	C569.226379,510.835266 562.566345,527.660095 555.906372,544.484924 
	C547.740112,564.745789 539.573792,585.006592 531.194824,605.943604 
	C525.259277,621.101990 519.536377,635.584229 513.813416,650.066406 
	C505.222107,671.347595 496.592102,692.613281 488.050659,713.914429 
	C479.876587,734.299377 471.798950,754.723022 463.663757,775.123596 
	C463.016937,776.745667 462.252197,778.320801 461.542267,779.917725 
	C461.148010,779.786865 460.753754,779.656067 460.359528,779.525269 
	C469.090851,735.576843 477.822205,691.628479 486.678101,646.904724 
	C490.074188,629.560303 493.345703,612.991272 496.617218,596.422180 
	C501.200043,573.383545 505.782867,550.344971 510.547852,526.595581 
	C513.109802,514.207275 515.489624,502.529816 518.046875,489.981873 
	C515.586365,491.007172 513.943665,491.659149 512.326965,492.370361 
	C491.484955,501.539673 470.633118,510.686737 449.811340,519.901733 
	C430.370575,528.505554 410.962830,537.183838 391.540558,545.829346 
	C370.210663,555.114807 348.880432,564.399597 327.551025,573.686035 
	C321.626251,576.265564 315.703644,578.850037 308.270233,582.090332 
	C314.480347,562.091858 320.291107,543.379395 326.314209,523.979431 
	C331.605469,507.055634 336.684387,490.819366 341.763336,474.583069 
z"/>
<path fill="#02AEED" opacity="1.000000" stroke="none" 
	d="
M496.178284,596.347534 
	C493.345703,612.991272 490.074188,629.560303 486.700623,646.457642 
	C469.200806,646.221252 452.988129,650.601379 437.557159,658.399536 
	C427.265045,663.600586 416.722260,668.020569 405.013519,669.028931 
	C389.349945,670.377869 374.994690,666.579773 361.492218,658.782410 
	C351.650085,653.098755 341.489594,648.204163 329.961151,646.857117 
	C311.060608,644.648743 293.151886,648.745667 275.812225,655.659241 
	C266.580872,659.339844 257.733276,663.982971 248.092194,668.481079 
	C248.092194,666.825134 248.092194,665.109497 248.092209,663.393799 
	C248.092239,648.899963 248.000015,634.404846 248.215240,619.914185 
	C248.240631,618.205383 249.523605,615.671509 250.947311,614.951843 
	C278.966400,600.788818 308.215057,592.458557 340.034058,596.914062 
	C352.062042,598.598206 363.500610,602.352661 373.886597,608.429260 
	C389.923828,617.812378 405.861572,617.954773 422.645264,610.775513 
	C437.645294,604.359314 452.889679,598.245605 469.335510,596.753357 
	C478.079346,595.960022 486.934479,596.393311 496.178284,596.347534 
z"/>
<path fill="#02AEED" opacity="1.000000" stroke="none" 
	d="
M607.770020,414.839844 
	C611.812195,403.725159 616.215088,392.491119 620.780884,380.656128 
	C620.545349,379.952148 620.146851,379.849152 619.748352,379.746185 
	C602.320496,386.683533 584.887939,393.609253 567.466431,400.562469 
	C556.821411,404.811066 546.193237,409.101898 534.869019,413.267212 
	C512.547852,401.171661 489.388184,398.354553 465.514526,403.234711 
	C455.373810,405.307648 445.748322,409.901245 435.888672,413.349243 
	C444.582001,393.099152 453.275330,372.849091 462.110229,352.330414 
	C487.569366,347.155945 511.482788,352.191650 534.842712,361.961517 
	C546.863892,366.989166 559.335083,370.596527 572.528320,370.865387 
	C582.027710,371.058960 591.405457,369.857574 599.197449,364.138885 
	C619.408691,349.305542 642.154846,348.487885 665.603882,351.460602 
	C681.470581,353.472076 696.411133,358.322144 709.792114,367.431915 
	C712.790161,369.472961 714.180969,371.694580 714.115479,375.564636 
	C713.850891,391.194336 714.005737,406.831146 714.005737,423.311371 
	C712.180725,422.090912 710.889099,421.223999 709.594421,420.361816 
	C686.376648,404.900574 661.142944,397.196106 633.390137,403.229065 
	C624.555115,405.149658 616.527649,410.785004 607.770020,414.839844 
z"/>
<path fill="#02AEED" opacity="1.000000" stroke="none" 
	d="
M514.157593,650.201904 
	C519.536377,635.584229 525.259277,621.101990 531.120239,606.343994 
	C546.332397,612.085022 561.633789,617.698669 578.171143,615.901367 
	C585.092896,615.149109 592.886292,613.682190 598.353699,609.813293 
	C620.585449,594.081665 644.984802,593.788635 670.215637,597.657166 
	C684.353699,599.824890 697.560608,604.662781 709.531433,612.707275 
	C712.701477,614.837585 714.193298,617.132324 714.119446,621.208740 
	C713.836365,636.831177 714.004944,652.461853 714.004944,668.892944 
	C712.140259,667.650391 710.828857,666.791565 709.532532,665.910400 
	C687.171082,650.711365 662.700012,643.491882 635.763977,648.165405 
	C628.291931,649.461853 620.746643,652.895874 614.284424,657.001160 
	C588.911194,673.120056 563.282654,672.850037 536.890137,660.100647 
	C529.564636,656.562012 521.971924,653.576660 514.157593,650.201904 
z"/>
<path fill="#02AEED" opacity="1.000000" stroke="none" 
	d="
M556.334106,544.599487 
	C562.566345,527.660095 569.226379,510.835266 576.019104,493.765869 
	C584.494507,493.439819 592.595642,491.827942 599.326050,486.861420 
	C616.012817,474.547913 634.912842,471.930542 654.828979,473.192444 
	C674.045044,474.410034 692.271545,478.868195 708.722961,489.431702 
	C712.629883,491.940338 714.227844,494.756409 714.126099,499.523651 
	C713.800354,514.785645 714.005127,530.058960 714.005127,546.129089 
	C712.194458,544.897217 711.022949,544.104980 709.856140,543.305847 
	C688.002563,528.337646 663.998474,521.045898 637.592407,525.162354 
	C629.469543,526.428650 621.135315,529.910522 614.175781,534.371521 
	C596.250122,545.861572 577.236267,548.694519 556.334106,544.599487 
z"/>
<path fill="#03AEED" opacity="1.000000" stroke="none" 
	d="
M376.170990,364.002502 
	C371.513153,380.204681 366.504700,396.240509 361.285828,412.565033 
	C334.863159,396.323669 307.538361,398.444763 280.024414,408.559998 
	C269.320679,412.495087 259.099518,417.742859 248.358429,422.526337 
	C248.290695,421.813965 248.105255,420.764221 248.103943,419.714203 
	C248.085098,404.731598 247.988892,389.747406 248.221817,374.768402 
	C248.250626,372.916016 249.595749,370.152893 251.119324,369.393372 
	C277.735626,356.124878 305.463165,347.772034 335.714478,350.907745 
	C350.027771,352.391418 363.207275,357.184174 376.170990,364.002502 
z"/>
<path fill="#03AEEC" opacity="1.000000" stroke="none" 
	d="
M341.343018,474.489746 
	C336.684387,490.819366 331.605469,507.055634 326.333008,523.580994 
	C302.259674,522.374268 280.525055,529.708984 259.547943,540.100403 
	C255.877029,541.918823 252.316864,543.960815 248.094208,546.227661 
	C248.094208,528.950928 248.036575,512.367310 248.212418,495.786163 
	C248.225357,494.565460 249.659271,492.834686 250.875000,492.228882 
	C279.253143,478.088501 308.778870,469.583069 341.343018,474.489746 
z"/>
<path fill="#06ADE9" opacity="1.000000" stroke="none" 
	d="
M391.909668,545.914429 
	C410.962830,537.183838 430.370575,528.505554 449.811340,519.901733 
	C470.633118,510.686737 491.484955,501.539673 512.326965,492.370361 
	C513.943665,491.659149 515.586365,491.007172 518.046875,489.981873 
	C515.489624,502.529816 513.109802,514.207275 510.486786,526.195435 
	C484.261566,520.997742 459.450317,524.105896 435.829346,536.439758 
	C423.758209,542.742798 411.090515,546.946167 397.229614,546.396423 
	C395.576691,546.330811 393.928925,546.135010 391.909668,545.914429 
z"/>
<path fill="#000000" opacity="1.000000" stroke="none" 
	d="
M213.905029,1044.984253 
	C228.382294,1054.557739 229.688309,1086.215698 213.556671,1097.650391 
	C209.527405,1100.506470 204.068710,1102.563721 199.177124,1102.761353 
	C183.381683,1103.399048 167.544357,1102.999146 151.361877,1102.999146 
	C151.361877,1082.095581 151.361877,1061.370361 151.361877,1040.000000 
	C154.505112,1040.000000 157.773468,1040.000000 161.041824,1040.000000 
	C173.873764,1040.000000 186.728027,1039.566406 199.526001,1040.225708 
	C204.264969,1040.469727 208.871643,1043.281616 213.905029,1044.984253 
z"/>
<path fill="#FDF002" opacity="1.000000" stroke="none" 
	d="
M435.689941,413.609924 
	C445.748322,409.901245 455.373810,405.307648 465.514526,403.234711 
	C489.388184,398.354553 512.547852,401.171661 534.476379,413.370178 
	C506.439514,425.108704 478.110046,436.645660 449.772461,448.162506 
	C438.439331,452.768494 427.088226,457.330170 414.333008,462.482483 
	C421.769531,445.396820 428.630371,429.633698 435.689941,413.609924 
z"/>
<path fill="#ED1D24" opacity="1.000000" stroke="none" 
	d="
M619.978882,379.948883 
	C620.146851,379.849152 620.545349,379.952148 620.822998,380.286530 
	C620.537964,380.395813 620.373718,380.273682 619.978882,379.948883 
z"/>
</svg>